{"title":"Brick.Mansions.2014.Bluray.1080.DTS.X264.H3LL2P4Y","uid":10876443,"size":11978226471,"categoryP":"video","categoryS":"hd___movies","magnet":"?xt=urn:btih:86fb5230cc10e64d5816dd5661f3fd2eec3ae92c&amp;dn=Brick.Mansions.2014.Bluray.1080.DTS.X264.H3LL2P4Y&amp;tr=udp%3A%2F%2Ftracker.openbittorrent.com%3A80&amp;tr=udp%3A%2F%2Fopen.demonii.com%3A1337&amp;tr=udp%3A%2F%2Ftracker.coppersurfer.tk%3A6969&amp;tr=udp%3A%2F%2Fexodus.desync.com%3A6969","seeders":1,"leechers":0,"uploader":"inovai","files":2,"time":1408995978,"description":"Cover:\n &lt;a href=&quot;\nhttp://forum.primetimeshow.in/viewtopic.php?f=7&amp;t=598&quot; rel=&quot;nofollow&quot; target=&quot;_NEW&quot;&gt;\nhttp://forum.primetimeshow.in/viewtopic.php?f=7&amp;t=598&lt;/a&gt;\n\nPlot\nAn undercover Detroit cop navigates a dangerous neighborhood that's surrounded by a containment wall with the help of an ex-con in order to bring down a crime lord and his plot to devastate the entire city.\n\nScreenshots:\n &lt;a href=&quot;\nhttp://img.primetimeshow.in/share.php?id=139A_53FB7401&quot; rel=&quot;nofollow&quot; target=&quot;_NEW&quot;&gt;\nhttp://img.primetimeshow.in/share.php?id=139A_53FB7401&lt;/a&gt;\n &lt;a href=&quot;\nhttp://img.primetimeshow.in/share.php?id=BD80_53FB7401&quot; rel=&quot;nofollow&quot; target=&quot;_NEW&quot;&gt;\nhttp://img.primetimeshow.in/share.php?id=BD80_53FB7401&lt;/a&gt;\n &lt;a href=&quot;\nhttp://img.primetimeshow.in/share.php?id=59B8_53FB7401&quot; rel=&quot;nofollow&quot; target=&quot;_NEW&quot;&gt;\nhttp://img.primetimeshow.in/share.php?id=59B8_53FB7401&lt;/a&gt;\n &lt;a href=&quot;\nhttp://img.primetimeshow.in/share.php?id=08C6_53FB7401&quot; rel=&quot;nofollow&quot; target=&quot;_NEW&quot;&gt;\nhttp://img.primetimeshow.in/share.php?id=08C6_53FB7401&lt;/a&gt;\n &lt;a href=&quot;\nhttp://img.primetimeshow.in/share.php?id=1DB3_53FB7401&quot; rel=&quot;nofollow&quot; target=&quot;_NEW&quot;&gt;\nhttp://img.primetimeshow.in/share.php?id=1DB3_53FB7401&lt;/a&gt;\n\n\nSource\nBrick Mansions 2014 1080p Blu-ray AVC DTS-HD MA 5.1-HDW;)\n\n[mediainfo]\nGeneral\nComplete name : H:/Brick.Mansions.2014.Bluray.1080.DTS.X264.H3LL2P4Y.mkv\nFormat : Matroska\nFormat version : Version 4 / Version 2\nFile size : 11.0 GiB\nDuration : 1h 30mn\nOverall bit rate : 17.5 Mbps\nEncoded date : UTC 2014-08-17 11:53:07\nDURATION : 01:30:10.048000000\nNUMBER_OF_FRAMES : 507192\nNUMBER_OF_BYTES : 1020470304\n\n\nVideo\nID : 1\nFormat : AVC\nFormat/Info : Advanced Video Codec\nFormat profile : &lt;a class=&quot;__cf_email__&quot; href=&quot;/cdn-cgi/l/email-protection&quot; data-cfemail=&quot;672f0e000f272b534956&quot;&gt;[email&amp;#160;protected]&lt;/a&gt;&lt;script cf-hash='f9e31' type=&quot;text/javascript&quot;&gt;\n/* &lt;![CDATA[ */!function(){try{var t=&quot;currentScript&quot;in document?document.currentScript:function(){for(var t=document.getElementsByTagName(&quot;script&quot;),e=t.length;e--;)if(t[e].getAttribute(&quot;cf-hash&quot;))return t[e]}();if(t&amp;&amp;t.previousSibling){var e,r,n,i,c=t.previousSibling,a=c.getAttribute(&quot;data-cfemail&quot;);if(a){for(e=&quot;&quot;,r=parseInt(a.substr(0,2),16),n=2;a.length-n;n+=2)i=parseInt(a.substr(n,2),16)^r,e+=String.fromCharCode(i);e=document.createTextNode(e),c.parentNode.replaceChild(e,c)}}}catch(u){}}();/* ]]&gt; */&lt;/script&gt;\nFormat settings, CABAC : Yes\nFormat settings, ReFrames : 5 frames\nCodec ID : V_MPEG4/ISO/AVC\nDuration : 1h 30mn\nBit rate : 15.9 Mbps\nWidth : 1 920 pixels\nHeight : 800 pixels\nDisplay aspect ratio : 2.40:1\nFrame rate mode : Constant\nFrame rate : 24.000 fps\nColor space : YUV\nChroma subsampling : 4:2:0\nBit depth : 8 bits\nScan type : Progressive\nBits/(Pixel*Frame) : 0.433\nStream size : 9.84 GiB (89%)\nWriting library : x264 core 142 r2431 ac76440\nLanguage : English\nDefault : Yes\nForced : No\n\nAudio\nID : 2\nFormat : DTS\nFormat/Info : Digital Theater Systems\nMode : 16\nFormat settings, Endianness : Big\nCodec ID : A_DTS\nDuration : 1h 30mn\nBit rate mode : Constant\nBit rate : 1 509 Kbps\nChannel count : 6 channels\nChannel positions : Front: L C R, Side: L R, LFE\nSampling rate : 48.0 KHz\nBit depth : 24 bits\nCompression mode : Lossy\nStream size : 973 MiB (9%)\nDefault : Yes\nForced : No\n\nDisc Info: &lt;a href=&quot;\nhttp://i.imgur.com/GiTKoYC.png&quot; rel=&quot;nofollow&quot; target=&quot;_NEW&quot;&gt;\nhttp://i.imgur.com/GiTKoYC.png&lt;/a&gt;\n\nThanks to HDW for source!!\n\nAll Credits goes to H3LL2P4Y RG team for encoding and distribution!!\n\nSeed N Enjoy!","torrent":{"xt":"urn:btih:86fb5230cc10e64d5816dd5661f3fd2eec3ae92c","amp;dn":"Brick.Mansions.2014.Bluray.1080.DTS.X264.H3LL2P4Y","amp;tr":["udp%3A%2F%2Ftracker.openbittorrent.com%3A80","udp%3A%2F%2Fopen.demonii.com%3A1337","udp%3A%2F%2Ftracker.coppersurfer.tk%3A6969","udp%3A%2F%2Fexodus.desync.com%3A6969"],"infoHash":"86fb5230cc10e64d5816dd5661f3fd2eec3ae92c","infoHashBuffer":{"type":"Buffer","data":[134,251,82,48,204,16,230,77,88,22,221,86,97,243,253,46,236,58,233,44]},"announce":[],"urlList":[]}}